# xmcd
#
# Track frame offsets:
#	150
#	16427
#	29342
#	45506
#	61978
#	80633
#	96872
#	110329
#	124919
#	140339
#	153971
#	177956
#	193292
#	207922
#	223387
#	239474
#	253877
#	271269
#	290068
#	310432
#
# Disc length: 4346 seconds
#
# Revision: 0
# Processed by: cddbd v1.5.1PL0 Copyright (c) Steve Scherf et al.
# Submitted via: dBpowerAMP V4.0
#
DISCID=3510f814
DTITLE=John Williamson - The Way It Is
DYEAR=1900
DGENRE=Country
TTITLE0=Campfire on the road
TTITLE1=A thousand feet
TTITLE2=Three sons
TTITLE3=Queensland bungalow
TTITLE4=Wonthaggo
TTITLE5=Mountain hideaway
TTITLE6=Singing in the rain
TTITLE7=Would I be the one
TTITLE8=Wer'e still here
TTITLE9=Happy birthday my old friend
TTITLE10=Railwayman
TTITLE11=Great ocean road
TTITLE12=Purple roses
TTITLE13=Do I love you
TTITLE14=Thargomindah (The way it is)
TTITLE15=The land of the truely free
TTITLE16=Cootamundra wattle
TTITLE17=Galleries of pink galahs
TTITLE18=Raining on the rock
TTITLE19=A flag of our own
EXTD=
EXTT0=
EXTT1=
EXTT2=
EXTT3=
EXTT4=
EXTT5=
EXTT6=
EXTT7=
EXTT8=
EXTT9=
EXTT10=
EXTT11=
EXTT12=
EXTT13=
EXTT14=
EXTT15=
EXTT16=
EXTT17=
EXTT18=
EXTT19=
PLAYORDER=
